<svg width="313" height="329" viewBox="0 0 313 329" fill="none" xmlns="http://www.w3.org/2000/svg">
<rect width="313" height="329" rx="10" fill="#C4C4C4" fill-opacity="0.5"/>
<path d="M124.975 191.644H189.156L169.862 165.919L152.537 188.363L140.331 171.694L124.975 191.644ZM117.625 212.25C115.525 212.25 113.688 211.462 112.113 209.887C110.538 208.312 109.75 206.475 109.75 204.375V125.625C109.75 123.525 110.538 121.688 112.113 120.113C113.688 118.538 115.525 117.75 117.625 117.75H196.375C198.475 117.75 200.312 118.538 201.887 120.113C203.462 121.688 204.25 123.525 204.25 125.625V204.375C204.25 206.475 203.462 208.312 201.887 209.887C200.312 211.462 198.475 212.25 196.375 212.25H117.625ZM117.625 204.375H196.375V125.625H117.625V204.375ZM117.625 125.625V204.375V125.625Z" fill="black"/>
</svg>
