<svg width="313" height="313" viewBox="0 0 313 313" fill="none" xmlns="http://www.w3.org/2000/svg">
<circle cx="156.5" cy="156.5" r="156.5" fill="#D9D9D9"/>
<path d="M125.225 182.894H189.406L170.112 157.169L152.787 179.612L140.581 162.944L125.225 182.894ZM117.875 203.5C115.775 203.5 113.938 202.712 112.363 201.137C110.788 199.562 110 197.725 110 195.625V116.875C110 114.775 110.788 112.937 112.363 111.362C113.938 109.787 115.775 109 117.875 109H196.625C198.725 109 200.562 109.787 202.137 111.362C203.712 112.937 204.5 114.775 204.5 116.875V195.625C204.5 197.725 203.712 199.562 202.137 201.137C200.562 202.712 198.725 203.5 196.625 203.5H117.875ZM117.875 195.625H196.625V116.875H117.875V195.625ZM117.875 116.875V195.625V116.875Z" fill="black"/>
</svg>
